<svg width="609" height="818" viewBox="0 0 609 818" fill="none" xmlns="http://www.w3.org/2000/svg">
<path opacity="0.2" d="M3.07909 73.0754C-0.484664 77.2945 0.0466644 83.6039 4.26585 87.1676L73.0214 145.242C77.2406 148.806 83.5499 148.275 87.1136 144.056C90.6774 139.836 90.1461 133.527 85.9269 129.963L24.8108 78.3414L76.4328 17.2253C79.9966 13.0061 79.4653 6.69681 75.2461 3.13306C71.0269 -0.430695 64.7176 0.100633 61.1538 4.31982L3.07909 73.0754ZM606.582 741.728C609.916 737.325 609.049 731.053 604.646 727.719L532.896 673.388C528.493 670.053 522.221 670.92 518.887 675.323C515.553 679.726 516.419 685.998 520.822 689.332L584.6 737.627L536.306 801.405C532.972 805.808 533.838 812.08 538.241 815.414C542.644 818.748 548.916 817.881 552.25 813.478L606.582 741.728ZM11.5578 89.4928C59.3579 85.4674 131.477 96.7944 191.593 143.767C251.271 190.397 300.441 273.193 301.087 414.825L321.087 414.733C320.418 268.04 269.19 179.017 203.907 128.007C139.061 77.3388 61.6537 65.2033 9.87943 69.5634L11.5578 89.4928ZM301.087 414.825C301.756 561.344 350.732 648.108 413.525 696.231C475.888 744.026 550.287 752.462 599.978 745.597L597.241 725.785C551.64 732.085 482.936 724.229 425.69 680.357C368.874 636.814 321.735 556.54 321.087 414.733L301.087 414.825Z" fill="#EBFF00"/>
</svg>
